<svg xmlns="http://www.w3.org/2000/svg" width="512" height="512" xmlns:v="https://vecta.io/nano"><path d="M277.363.688l2.027.195C292.777 2.188 305.953 4.48 319 7.75l.508.125c5.316 1.332 10.535 2.922 15.742 4.625l.574.188c8.75 2.855 17.328 6.18 25.676 10.063l.547.254c9.363 4.355 9.363 4.355 13.102 6.414l2.137 1.168c3.875 2.113 7.66 4.355 11.414 6.672l2.188 1.332c4.52 2.75 8.895 5.734 13.172 8.84l1.527 1.098c3.434 2.453 6.723 5.059 9.996 7.723l2.199 1.766c2.289 1.828 4.496 3.766 6.664 5.734l1.523 1.344c1.227 1.07 2.426 2.176 3.621 3.281l1.191 1.086c2.258 2.063 4.426 4.219 6.594 6.383l.465.465c3.035 3.023 3.035 3.023 4.313 4.539.387.449.801.863 1.223 1.277.758.746 1.461 1.527 2.156 2.336.512.59 1.035 1.164 1.563 1.742.969 1.074 1.887 2.18 2.797 3.305.68.828 1.379 1.637 2.078 2.445 1.352 1.57 2.641 3.18 3.91 4.816l1.207 1.543c1.902 2.422 3.73 4.883 5.52 7.387l1.152 1.578c3.781 5.121 7.203 10.527 10.492 15.973l.391.648c5.223 8.668 9.973 17.613 14.109 26.852l.395.875c5.488 12.234 9.883 24.93 13.355 37.875l.156.586c4.117 15.352 6.641 31.098 7.781 46.945l.047.621c.41 5.82.566 11.641.563 17.473v.898c-.031 23.082-3.125 46.16-26.828 113.531l-.969 1.984c-1.504 3.07-3.141 6.047-4.848 9.008l-1.16 2.047c-2.648 4.699-5.52 9.23-8.508 13.719l-.379.57c-2.379 3.57-4.82 7.09-7.371 10.539l-.441.598c-2.223 2.996-4.566 5.891-6.926 8.781l-.969 1.191c-2.105 2.59-4.273 5.129-6.535 7.586l-1.422 1.602c-2.867 3.281-5.945 6.367-9.031 9.441l-3.215 3.215-.578.582a59.52 59.52 0 0 1-3.172 2.949c-.738.637-1.441 1.309-2.148 1.977a66.79 66.79 0 0 1-3.902 3.379 47.38 47.38 0 0 0-1.895 1.652c-1.293 1.176-2.637 2.281-4 3.375l-.859.695a235.66 235.66 0 0 1-11.012 8.355l-1.418 1.02c-2.09 1.504-4.207 2.957-6.352 4.383l-.492.328c-2.836 1.887-5.699 3.715-8.617 5.469l-.652.395c-19.02 11.43-39.301 20.359-113.504 36.027l-.633.047c-5.766.414-11.539.586-17.32.578h-.859c-22.574-.031-44.992-3.062-79.781-12.797l-.551-.176c-19.703-6.398-38.785-15.484-60.949-29.824l-.668-.449A246.82 246.82 0 0 1 101.5 459.5l-.496-.375c-2.203-1.668-4.375-3.359-6.504-5.125l-1.328-1.078a207.77 207.77 0 0 1-4.023-3.398l-1.758-1.5c-2.086-1.762-4.086-3.605-6.07-5.488l-1.68-1.547c-1.844-1.687-3.625-3.434-5.387-5.203l-1.434-1.43c-2.758-2.758-2.758-2.758-3.977-4.207-.387-.449-.797-.859-1.219-1.273-.754-.742-1.449-1.52-2.141-2.32-.555-.637-1.129-1.258-1.703-1.883a76.81 76.81 0 0 1-2.93-3.437c-.676-.824-1.371-1.633-2.07-2.437-1.484-1.723-2.891-3.496-4.281-5.297l-.621-.801L49 406.25l-.387-.52c-2.398-3.254-4.645-6.602-6.863-9.98l-.395-.598L39 391.5l-.367-.578c-11.645-18.379-20.609-38.297-38.73-134.555l.008-2.23c.016-6.934.082-13.848.777-20.754l.191-2c2.195-22.945 7.379-45.539 33.199-103.926l1.238-2.109c1.898-3.25 3.887-6.437 5.934-9.598l.523-.809 1.477-2.191.414-.605c3.078-4.473 6.246-8.867 9.586-13.145l.336-.434a207.87 207.87 0 0 1 6.555-8.02c.742-.863 1.465-1.734 2.172-2.625 1.324-1.637 2.789-3.145 4.238-4.668a92.65 92.65 0 0 0 2.137-2.332c.945-1.062 1.938-2.066 2.957-3.059.676-.664 1.324-1.359 1.941-2.082.926-1.07 1.938-2.027 2.977-2.984 1.254-1.168 2.496-2.344 3.703-3.562a42.62 42.62 0 0 1 2.68-2.5c.582-.508 1.148-1.031 1.711-1.559 1.332-1.246 2.688-2.434 4.109-3.574.871-.715 1.715-1.453 2.563-2.195 1.609-1.402 3.258-2.734 4.945-4.039l1.531-1.191A262.76 262.76 0 0 1 106 48l.5-.363c5.336-3.859 10.859-7.496 16.5-10.887l.648-.391c14.461-8.715 29.668-15.992 45.57-21.668l1.566-.566C190.41 7.027 211.066 2.809 231.816.816l1.941-.191C248.031-.777 263.09-.75 277.363.688zm0 0" fill="rgb(99.607843%,99.607843%,99.607843%)"/><path d="M255.125 23.156h.523c11.828-.027 23.688.805 35.355 2.762l2.242.355L297.5 27l.68.125c20.398 3.762 40.137 10.375 70.441 25.516l2.297 1.27c9.355 5.102 18.172 11.316 26.582 17.84l.473.367c1.875 1.449 3.703 2.938 5.504 4.48.711.605 1.438 1.191 2.164 1.777 1.27 1.031 2.469 2.125 3.668 3.234.555.516 1.117 1.02 1.691 1.516 2.41 2.102 4.699 4.297 6.941 6.578.902.91 1.797 1.758 2.809 2.547.258.277.508.566.75.859.828.973 1.715 1.867 2.625 2.766 1.016 1.004 2 2.016 2.926 3.105.465.539.949 1.063 1.434 1.586 1.188 1.277 2.328 2.598 3.422 3.957.672.824 1.367 1.625 2.063 2.43 1.352 1.566 2.641 3.18 3.906 4.816l1.219 1.551a145.85 145.85 0 0 1 5.293 7.16l1.086 1.527c6.523 9.105 12.117 18.813 17.277 28.742l.402.773C472.469 169.531 479.043 189.141 483 209l.18.898.934 4.871.391 2.051c1.191 6.309 1.848 12.742 2.434 19.133l.086.945c.363 4.156.516 8.316.535 12.484l.004.637.016 4.746v.703c.012 7.516-.215 14.934-1.016 22.41l-.18 1.855c-.301 3.234-.734 6.445-1.211 9.656l-.117.801c-1.078 7.285-2.531 14.414-4.305 21.559l-.141.559c-1.465 5.891-3.199 11.684-5.109 17.441l-.184.551a203.45 203.45 0 0 1-9.437 23.406l-1.211 2.555c-3.129 6.609-6.625 12.988-10.418 19.238l-.434.719c-5.324 8.77-11.25 17.207-17.777 25.125l-1.066 1.305c-2.219 2.742-4.539 5.395-6.922 7.996l-1.473 1.668c-1.234 1.418-2.566 2.695-3.988 3.918a84.79 84.79 0 0 0-1.75 1.598c-1.562 1.461-3.168 2.84-4.84 4.172l-.848.691C404.398 431.449 392.031 438.297 379 443l-.723.266c-4.66 1.691-9.457 2.859-14.277 3.984l-.766.18a88.25 88.25 0 0 1-48.484-2.68l-.664-.227c-9.867-3.422-19.016-8.883-26.836-15.773l-.711-.625c-3.23-2.906-6.367-5.941-9.039-9.375l-.766-.922c-1.82-2.187-3.477-4.418-4.984-6.828l-.352-.555c-11.914-18.957-15.738-42.242-10.906-64.066 1.625-6.934 4.176-13.59 7.508-19.879l.27-.512c1.656-3.113 3.563-5.832 5.969-8.426.531-.586 1.023-1.191 1.512-1.812l-.402-.117c-1.578-.488-2.98-1.176-4.426-1.977l-.723-.398c-2.477-1.383-4.852-2.91-7.199-4.508l-.566-.383c-10.309-7.02-10.309-7.02-10.793-9.402 0-1.355.18-2.156 1.109-3.215 1.164-.727 2.203-.5 3.5-.25 1.129.32 2.234.707 3.344 1.094 7.52 2.535 15.34 4.336 23.156 5.656l.789.133c12.941 2.188 25.883 3.973 38.961 5.117l.977.086c2.754.219 5.508.211 8.27.211l2.516.008c4.938.016 9.848-.289 14.738-.977l.895-.125c5.875-.867 11.684-2.207 17.355-3.953l.754-.23c10.883-3.395 21.379-8.551 30.246-15.77l.391-.316c7.664-6.266 13.781-13.637 18.359-22.434l.262-.496c4.477-8.648 7.059-18.863 8.238-28.504l.078-.633c.695-5.75.719-11.625-.078-17.367l-.07-.543c-1.848-14.348-10.109-27.824-21.43-36.707l-.848-.699c-3.48-2.867-7.25-5.293-11.152-7.551l-.473-.277c-3.809-2.223-7.801-4.078-11.777-5.973l-.809-.383-.742-.355c-5.113-2.434-10.18-4.91-15.094-7.738l-3.18-1.762c-3.469-1.875-6.824-3.937-10.176-6.012l-.68-.422c-4.793-2.969-9.449-6.148-14.133-9.285l-2.176-1.449-5.645-3.816-18.211-12.113-1.953-1.234c-13.414-8.449-28.34-16.652-44.203-18.93l-.562-.09c-19.488-3.031-39.516 3.996-56.687 12.59l-.812.402c-9.129 4.551-17.746 10.203-25.687 16.598l-.48.387c-3.379 2.711-6.668 5.504-9.832 8.461l-.941.844c-1.988 1.75-3.852 3.625-5.719 5.5l-1.723 1.723-1.113 1.109-.512.512c-.965.973-1.898 1.977-2.793 3.02-.598.691-1.227 1.355-1.855 2.023a66.4 66.4 0 0 0-3.18 3.688c-.715.871-1.453 1.715-2.195 2.563-1.402 1.605-2.734 3.258-4.035 4.945l-1.207 1.539a195.77 195.77 0 0 0-5.531 7.398l-1.078 1.504c-12.004 16.738-22 34.938-39.305 77.785l-.18.523c-6.824 19.996-11.457 40.949-13.57 61.977l-.062.629c-2.543 25.246-1.914 50.797 5.645 88.34.445 1.633.801 3.402.105 5-1.391 1.688-1.391 1.688-2.699 1.84l-.566.02-.559.027c-1.59-.273-2.66-1.605-3.691-2.746l-.43-.469a74.69 74.69 0 0 1-2.934-3.449 87.23 87.23 0 0 0-1.555-1.863c-1.422-1.66-2.781-3.363-4.125-5.09l-1.242-1.586c-1.66-2.117-3.281-4.254-4.824-6.457l-.984-1.379c-13.219-18.406-23.426-38.895-30.668-60.34l-.465-1.375c-2.59-7.648-4.574-15.488-6.336-23.367l-.316-1.398c-2.52-11.207-4.012-22.863-4.543-34.336l-.031-.637c-.211-4.422-.281-8.844-.281-13.27v-.523c-.004-6.547.227-13.047.813-19.57l.055-.602C25.973 212.734 31.004 191.582 41 166l.195-.469c3.262-7.777 6.875-15.453 11.055-22.781l.43-.758c8.277-14.641 18.047-28.68 29.457-41.07l1.418-1.598c.871-.996 1.762-1.969 2.664-2.934l.484-.516c1.715-1.82 3.477-3.59 5.246-5.355l1.625-1.629 1.059-1.055.48-.484c.945-.941 1.922-1.84 2.938-2.711.691-.602 1.359-1.23 2.027-1.859 1.219-1.133 2.473-2.203 3.77-3.246.641-.523 1.25-1.07 1.855-1.629 1.242-1.129 2.547-2.156 3.871-3.187l2.305-1.828c4.793-3.867 9.824-7.398 14.949-10.812l.586-.391c7.43-4.945 15.137-9.375 23.086-13.437l.797-.41c7.688-3.957 15.602-7.324 23.703-10.34l.535-.199c20.793-7.73 42.563-12.137 67.215-13.801l.59-.039c3.926-.242 7.855-.293 11.785-.305zm6.52 103.105c6.641 5.363 9.891 12.371 11.105 20.738l.148.957c1.043 8.805-.508 19.703-6.133 26.871L265.75 176l-.504.621c-3.133 3.734-7.793 6.242-12.496 7.379l-.891.227c-5.664 1.285-12.102 1.063-17.359-1.477l-.699-.328c-5.441-2.723-9.305-8.348-11.223-13.996-.719-2.273-1.223-4.57-1.578-6.926l-.102-.629c-.477-3.719-.25-7.48.602-11.121l.121-.535c2.184-9.34 7.828-18.973 16.055-24.176 1.313-.805 2.633-1.492 4.074-2.039l.719-.297c6.457-2.281 13.82-.422 19.176 3.559zm0 0" fill="rgb(0%,0%,0%)"/></svg>